<?xml version="1.0" encoding="utf-8"?>
<!-- Generator: Adobe Illustrator 15.0.0, SVG Export Plug-In . SVG Version: 6.00 Build 0)  -->
<!DOCTYPE svg PUBLIC "-//W3C//DTD SVG 1.1//EN" "http://www.w3.org/Graphics/SVG/1.1/DTD/svg11.dtd">
<svg version="1.1" id="Layer_1" xmlns="http://www.w3.org/2000/svg" xmlns:xlink="http://www.w3.org/1999/xlink" x="0px" y="0px"
	 width="24px" height="24px" viewBox="0 0 24 24" enable-background="new 0 0 24 24" xml:space="preserve">
<g>
	<path fill="#FFFFFF" d="M23.43,0l0.605,0.867c-2.47,1.858-5.217,4.721-8.24,8.586c-3.026,3.867-5.333,7.48-6.927,10.839
		l-1.28,0.866c-1.063,0.738-1.783,1.286-2.165,1.643c-0.149-0.542-0.478-1.43-0.987-2.664l-0.484-1.128
		c-0.693-1.615-1.336-2.809-1.93-3.582c-0.595-0.773-1.262-1.286-2-1.542c1.245-1.316,2.39-1.973,3.427-1.973
		c0.888,0,1.876,1.207,2.961,3.618l0.537,1.212c1.95-3.291,4.454-6.487,7.513-9.591C17.52,4.045,20.509,1.662,23.43,0z"/>
</g>
</svg>
