<?xml version="1.0" encoding="utf-8"?>
<!-- Generator: Adobe Illustrator 15.0.0, SVG Export Plug-In . SVG Version: 6.00 Build 0)  -->
<!DOCTYPE svg PUBLIC "-//W3C//DTD SVG 1.1//EN" "http://www.w3.org/Graphics/SVG/1.1/DTD/svg11.dtd">
<svg version="1.1" id="Layer_1" xmlns="http://www.w3.org/2000/svg" xmlns:xlink="http://www.w3.org/1999/xlink" x="0px" y="0px"
	 width="24px" height="24px" viewBox="0 0 24 24" enable-background="new 0 0 24 24" xml:space="preserve">
<g>
	<path fill="#FFFFFF" d="M11.823,16.079l-0.357,0.501c-2.475,3.742-4.506,5.614-6.09,5.614c-1.824,0-3.617-1.482-5.376-4.449
		c0.237,0.016,0.414,0.023,0.524,0.023c2.076,0,4.393-1.586,6.946-4.754l0.642-0.813L7.277,11.3
		C4.946,8.825,3.782,6.724,3.782,4.996c0-1.411,1.277-3.077,3.829-4.996c0.367,2.458,1.454,4.853,3.26,7.184l0.714,0.906
		l0.572-0.739c2.648-3.379,5.049-5.066,7.208-5.066c1.681,0,2.957,1.276,3.829,3.832c-0.254-0.033-0.438-0.05-0.547-0.05
		c-0.761,0-1.831,0.51-3.212,1.534c-1.38,1.022-2.545,2.175-3.496,3.462l-0.713,0.976l0.688,0.664
		c2.553,2.475,5.218,3.712,7.993,3.712c-1.491,3.014-3.046,4.52-4.663,4.52c-1.457,0-3.568-1.282-6.327-3.852L11.823,16.079z"/>
</g>
</svg>
