<?xml version="1.0" encoding="utf-8"?>
<!-- Generator: Adobe Illustrator 16.0.3, SVG Export Plug-In . SVG Version: 6.00 Build 0)  -->
<!DOCTYPE svg PUBLIC "-//W3C//DTD SVG 1.1//EN" "http://www.w3.org/Graphics/SVG/1.1/DTD/svg11.dtd">
<svg version="1.1" id="Layer_1" xmlns="http://www.w3.org/2000/svg" xmlns:xlink="http://www.w3.org/1999/xlink" x="0px" y="0px"
	 width="30px" height="30px" viewBox="0 0 30 30" enable-background="new 0 0 30 30" xml:space="preserve">
<path fill="#333333" d="M26.662,27.24l1.436-1.434l-5.229-5.23l-0.575,0.575l-2.223-2.224c3.462-4.053,3.286-10.169-0.544-14.004
	C17.575,2.974,14.982,1.9,12.225,1.9c-2.759,0-5.353,1.074-7.306,3.025C0.896,8.951,0.896,15.503,4.92,19.531
	c1.952,1.949,4.546,3.023,7.304,3.023c2.485,0,4.832-0.879,6.7-2.479l2.223,2.223l-0.573,0.572l5.228,5.229l0.574-0.574l0.001,0.001
	L26.662,27.24z M12.224,20.154c-2.117,0-4.108-0.824-5.607-2.32C3.527,14.742,3.527,9.712,6.615,6.622
	c1.5-1.498,3.491-2.322,5.609-2.322c2.117,0,4.107,0.824,5.604,2.32c3.089,3.092,3.089,8.122,0,11.212
	C16.332,19.33,14.342,20.154,12.224,20.154z"/>
</svg>
