<?xml version="1.0" encoding="utf-8"?>
<!-- Generator: Adobe Illustrator 16.0.3, SVG Export Plug-In . SVG Version: 6.00 Build 0)  -->
<!DOCTYPE svg PUBLIC "-//W3C//DTD SVG 1.1//EN" "http://www.w3.org/Graphics/SVG/1.1/DTD/svg11.dtd">
<svg version="1.1" id="Layer_1" xmlns="http://www.w3.org/2000/svg" xmlns:xlink="http://www.w3.org/1999/xlink" x="0px" y="0px"
	 width="200px" height="106px" viewBox="0 0 200 106" enable-background="new 0 0 200 106" xml:space="preserve">
<g>
	<path fill="#262626" d="M27.25,48.384l-7.203-17.207h-9.809v17.207H2.305V2.865h18.474c10.317,0,15.016,6.805,15.016,14.124
		c0,6.1-3.174,10.915-7.937,12.778l7.937,18.617H27.25z M20.778,10.122h-10.6V23.73h10.725c4.456,0,7.02-2.44,7.02-6.741
		C27.922,13.33,25.235,10.122,20.778,10.122"/>
	<polygon fill="#262626" points="42.056,48.384 42.056,2.865 73.104,2.865 73.104,10.379 49.928,10.379 49.928,20.971 
		70.358,20.971 70.358,28.417 49.928,28.417 49.928,40.872 73.104,40.872 73.104,48.384 	"/>
	<path fill="#262626" d="M19.27,85.725h-9.153v16.308H2.306V56.512H19.27c9.951,0,15.262,5.84,15.262,14.572
		C34.531,79.814,29.221,85.725,19.27,85.725 M18.965,63.766h-8.849v14.701h8.849c5.252,0,7.632-2.951,7.632-7.318
		C26.597,66.784,24.217,63.766,18.965,63.766"/>
	<path fill="#262626" d="M56.136,102.865c-11.167,0-16.966-7.449-16.966-18.299V56.512h7.873v27.928
		c0,6.48,2.809,10.914,9.093,10.914c6.286,0,9.096-4.434,9.096-10.914V56.512h7.872v28.055
		C73.104,95.416,67.305,102.865,56.136,102.865"/>
	<path fill="#262626" d="M107.773,99.014c-3.357,2.694-7.385,3.08-11.536,3.08H79.025V56.512h17.213
		c3.479,0,7.081,0.512,10.011,2.504c3.173,2.185,5.003,5.969,5.003,9.887c0,3.725-1.646,7.896-5.313,9.632
		c4.09,1.987,6.229,6.032,6.229,10.271C112.168,92.85,110.887,96.51,107.773,99.014 M96.543,63.639h-9.706v11.428h9.89
		c3.539,0,6.53-1.351,6.53-5.649C103.257,65.051,100.082,63.639,96.543,63.639 M96.787,82h-9.95v12.648h9.706
		c3.66,0,7.627-1.414,7.627-6.037C104.17,83.732,100.938,82,96.787,82"/>
	<polygon fill="#262626" points="117.24,102.031 117.24,56.512 125.115,56.512 125.115,94.197 145.193,94.197 145.193,102.031 	"/>
	<rect x="150.682" y="56.512" fill="#262626" width="7.993" height="45.521"/>
	<path fill="#262626" d="M194.102,97.473c-3.235,3.467-7.754,5.394-12.393,5.394s-8.971-1.605-12.266-5.073
		c-4.699-4.939-5.373-11.041-5.373-18.491c0-7.444,0.674-13.545,5.373-18.487c3.295-3.467,7.627-5.135,12.266-5.135
		s9.156,1.795,12.393,5.264c2.5,2.697,3.785,6.291,4.149,9.887h-8.056c-0.187-1.991-0.857-3.402-1.953-4.814
		c-1.405-1.861-3.848-2.826-6.533-2.826c-2.501,0-4.943,1.093-6.652,3.019c-2.988,3.274-2.988,8.924-2.988,13.097
		c0,4.176,0,9.825,2.988,13.102c1.709,1.924,4.151,3.015,6.652,3.015c2.686,0,5.128-1.028,6.533-2.89
		c1.096-1.414,1.768-3.018,1.953-5.006h8.056C197.887,91.113,196.602,94.773,194.102,97.473"/>
	<rect x="79.025" y="14.28" fill="#262626" width="7.848" height="9.033"/>
	<rect x="79.025" y="31.645" fill="#262626" width="7.848" height="9.034"/>
</g>
</svg>
